<svg xmlns="http://www.w3.org/2000/svg" width="1200" height="760" fill="none" viewBox="0 0 1200 760"><rect width="1200" height="760" fill="#0B1220"/><rect width="1120" height="680" x="40" y="40" fill="#111827" stroke="#1F2937" rx="28"/><text x="80" y="108" fill="#F9FAFB" font-family="Arial, Helvetica, sans-serif" font-size="34" font-weight="700">Safe vs Unsafe SWAR Escape Detection</text><text x="80" y="144" fill="#94A3B8" font-family="Arial, Helvetica, sans-serif" font-size="20">32 MiB scanned per run, gcc 13.3 `-O3 -march=native`, Intel Core i5-1340P</text><line x1="170" x2="1080" y1="600" y2="600" stroke="#334155" stroke-width="2"/><line x1="170" x2="170" y1="210" y2="600" stroke="#334155" stroke-width="2"/><text x="126" y="606" fill="#64748B" font-family="Arial, Helvetica, sans-serif" font-size="18">0</text><text x="104" y="508" fill="#64748B" font-family="Arial, Helvetica, sans-serif" font-size="18">2500</text><text x="104" y="410" fill="#64748B" font-family="Arial, Helvetica, sans-serif" font-size="18">5000</text><text x="104" y="312" fill="#64748B" font-family="Arial, Helvetica, sans-serif" font-size="18">7500</text><text x="90" y="214" fill="#64748B" font-family="Arial, Helvetica, sans-serif" font-size="18">10000</text><line x1="170" x2="1080" y1="502" y2="502" stroke="#1E293B" stroke-width="1"/><line x1="170" x2="1080" y1="404" y2="404" stroke="#1E293B" stroke-width="1"/><line x1="170" x2="1080" y1="306" y2="306" stroke="#1E293B" stroke-width="1"/><line x1="170" x2="1080" y1="208" y2="208" stroke="#1E293B" stroke-width="1"/><text x="220" y="645" fill="#CBD5E1" font-family="Arial, Helvetica, sans-serif" font-size="22" font-weight="700">ASCII-heavy</text><text x="510" y="645" fill="#CBD5E1" font-family="Arial, Helvetica, sans-serif" font-size="22" font-weight="700">Escapes + BMP</text><text x="815" y="645" fill="#CBD5E1" font-family="Arial, Helvetica, sans-serif" font-size="22" font-weight="700">Multilingual</text><rect width="82" height="263" x="230" y="337" fill="#38BDF8" rx="12"/><rect width="82" height="333" x="326" y="267" fill="#F59E0B" rx="12"/><text x="234" y="327" fill="#E2E8F0" font-family="Arial, Helvetica, sans-serif" font-size="18">6709.87</text><text x="330" y="257" fill="#FDE68A" font-family="Arial, Helvetica, sans-serif" font-size="18">8499.92</text><rect width="82" height="266" x="520" y="334" fill="#38BDF8" rx="12"/><rect width="82" height="342" x="616" y="258" fill="#F59E0B" rx="12"/><text x="524" y="324" fill="#E2E8F0" font-family="Arial, Helvetica, sans-serif" font-size="18">6783.53</text><text x="620" y="248" fill="#FDE68A" font-family="Arial, Helvetica, sans-serif" font-size="18">8741.70</text><rect width="82" height="266" x="810" y="334" fill="#38BDF8" rx="12"/><rect width="82" height="346" x="906" y="254" fill="#F59E0B" rx="12"/><text x="814" y="324" fill="#E2E8F0" font-family="Arial, Helvetica, sans-serif" font-size="18">6778.92</text><text x="910" y="244" fill="#FDE68A" font-family="Arial, Helvetica, sans-serif" font-size="18">8857.93</text><rect width="28" height="28" x="840" y="86" fill="#38BDF8" rx="6"/><text x="880" y="108" fill="#E2E8F0" font-family="Arial, Helvetica, sans-serif" font-size="20">safe</text><rect width="28" height="28" x="960" y="86" fill="#F59E0B" rx="6"/><text x="1000" y="108" fill="#FDE68A" font-family="Arial, Helvetica, sans-serif" font-size="20">unsafe</text><text x="80" y="690" fill="#94A3B8" font-family="Arial, Helvetica, sans-serif" font-size="18">Unsafe false-positive rate: 0.00% / 1.44% / 9.21%</text></svg>